<?xml version="1.0" encoding="UTF-8"?>
<svg id="_レイヤー_1" data-name="レイヤー_1" xmlns="http://www.w3.org/2000/svg" version="1.1" viewBox="0 0 850.39 850.39">
  <!-- Generator: Adobe Illustrator 30.2.1, SVG Export Plug-In . SVG Version: 2.1.1 Build 1)  -->
  <defs>
    <style>
      .st0 {
        fill: #a5936e;
      }
    </style>
  </defs>
  <g>
    <circle class="st0" cx="621.55" cy="320.89" r="6.29"/>
    <circle class="st0" cx="645.22" cy="378.14" r="6.29"/>
    <circle class="st0" cx="535.04" cy="234.46" r="6.29"/>
    <circle class="st0" cx="477.7" cy="213.35" r="6.29"/>
    <circle class="st0" cx="584.09" cy="272.27" r="12.35"/>
  </g>
  <path class="st0" d="M424.79,466.76c-21.16,0-38.37-17.21-38.37-38.37s17.21-38.37,38.37-38.37,38.37,17.21,38.37,38.37-17.21,38.37-38.37,38.37ZM424.79,394.47c-18.7,0-33.92,15.22-33.92,33.92s15.22,33.92,33.92,33.92,33.92-15.22,33.92-33.92-15.22-33.92-33.92-33.92Z"/>
  <g>
    <path class="st0" d="M401.82,697.57l4.06,2.11,18.95-36.48,18.85,36.48,4.07-2.1-20.62-39.91v-167.74c2.18-.9,3.72-3.04,3.72-5.54,0-3.32-2.69-6-6-6s-6,2.69-6,6c0,2.5,1.54,4.64,3.72,5.54v167.74l-20.73,39.91Z"/>
    <polygon class="st0" points="401.82 724.88 405.89 726.99 424.84 690.51 443.68 726.98 447.75 724.88 424.85 680.56 401.82 724.88"/>
  </g>
  <g>
    <path class="st0" d="M661.49,422.18c-2.5,0-4.64,1.54-5.54,3.72h-228.53v-228.18c2.18-.9,3.72-3.04,3.72-5.54,0-3.32-2.69-6-6-6s-6,2.69-6,6c0,2.5,1.54,4.64,3.71,5.54v232.76h233.11c.9,2.18,3.04,3.72,5.54,3.72,3.32,0,6-2.69,6-6s-2.69-6-6-6Z"/>
    <polygon class="st0" points="700.38 417.56 678.05 428.36 700.38 439.44 751.86 428.36 700.38 417.56"/>
    <polygon class="st0" points="436.22 153.26 425.14 101.78 414.34 153.26 425.14 175.59 436.22 153.26"/>
  </g>
  <path class="st0" d="M473.48,426.1c-1.14-5.32-5.85-9.31-11.51-9.31-6.51,0-11.78,5.27-11.78,11.78s5.27,11.78,11.78,11.78c5.79,0,10.58-4.18,11.57-9.68h91.54c-1.23,76.64-63.95,138.61-140.88,138.61s-140.9-63.2-140.9-140.9,63.2-140.9,140.9-140.9c61.84,0,116.29,40.51,134.47,99.1-1.4,1.1-2.36,2.73-2.36,4.65,0,3.32,2.69,6,6,6s6-2.69,6-6c0-3.04-2.29-5.45-5.23-5.85-18.72-60.59-74.98-102.49-138.88-102.49-80.21,0-145.47,65.26-145.47,145.47s65.26,145.47,145.47,145.47,145.47-65.26,145.47-145.47v-2.29h-96.19Z"/>
  <path class="st0" d="M365.39,637.71c-1.91,0-3.54.95-4.64,2.35-92.7-27.24-157.21-112.36-158.22-209.31h154.56c.88,2.21,3.03,3.79,5.56,3.79,3.32,0,6-2.69,6-6s-2.69-6-6-6c-2.48,0-4.6,1.5-5.52,3.64h-154.6c1-97.05,65.52-182.12,158.29-209.34,1.1,1.33,2.7,2.24,4.57,2.24,3.32,0,6-2.69,6-6s-2.69-6-6-6c-3.1,0-5.56,2.38-5.88,5.39-95.43,28.01-161.6,115.99-161.6,216.01s66.22,188.02,161.63,216.02c.39,2.94,2.8,5.25,5.85,5.25,3.32,0,6-2.69,6-6s-2.69-6-6-6Z"/>
  <g>
    <polygon class="st0" points="489.79 648.74 487.05 640.71 501.03 635.94 499.76 632.25 485.77 637.07 482.7 627.95 497.77 622.8 496.55 619.12 477.7 625.54 487.33 653.7 506.14 647.28 504.86 643.59 489.79 648.74"/>
    <polygon class="st0" points="543.51 623.51 529.76 601.59 526.4 603.72 542.18 628.85 559.05 618.32 557.02 615.06 543.51 623.51"/>
    <rect class="st0" x="575.54" y="567.18" width="3.92" height="29.72" transform="translate(-242.34 570.45) rotate(-44.41)"/>
    <path class="st0" d="M616.03,528.6l-.52-.28-6.43,11.34,3.31,1.89,4.25-7.51c1.65,1.46,2.65,3.26,2.98,5.39.33,2.31-.14,4.68-1.42,6.94-1.75,3.02-4.11,4.96-7.23,5.81-3.12.85-6,.57-8.65-.94-1.7-.99-3.02-2.31-3.97-4.02-.94-1.7-1.42-3.64-1.37-5.72,0-2.08.52-3.97,1.42-5.57.9-1.61,2.13-2.98,3.69-4.16,1.51-1.13,3.31-2.03,5.24-2.6l.57-.14-1.04-3.97-.57.19c-5.01,1.51-8.74,4.35-11.06,8.46-2.31,4.11-2.93,8.17-1.8,12.19,1.13,3.97,3.5,6.99,6.99,9.02,2.27,1.32,4.72,1.94,7.23,1.94,1.37,0,2.74-.19,4.16-.57,4.02-1.09,7.28-3.73,9.68-7.94,2.08-3.69,2.69-7.32,1.8-10.87-.9-3.54-3.35-6.52-7.23-8.79l-.05-.09Z"/>
    <path class="st0" d="M643.71,468.74c-2.31-1.32-4.91-1.98-7.61-1.98s-5.24.66-7.56,1.98c-2.31,1.32-4.16,3.17-5.48,5.53-1.32,2.31-1.98,4.91-1.98,7.65s.66,5.2,2.03,7.51c1.32,2.31,3.21,4.16,5.53,5.43,2.31,1.32,4.87,1.98,7.56,1.98s5.24-.66,7.56-1.98c2.31-1.32,4.16-3.17,5.48-5.48s1.98-4.87,1.98-7.56-.66-5.24-2.03-7.56c-1.32-2.31-3.21-4.16-5.53-5.48l.05-.05ZM647.25,481.83c0,3.21-1.09,5.91-3.21,7.98-2.17,2.13-4.72,3.17-7.8,3.17s-5.67-1.09-7.8-3.21c-2.17-2.17-3.21-4.77-3.21-7.89s1.04-5.76,3.17-7.94c2.13-2.17,4.68-3.26,7.84-3.26s5.67,1.09,7.84,3.26c2.17,2.13,3.26,4.82,3.26,7.94l-.09-.05Z"/>
  </g>
  <path class="st0" d="M650.5,428.63l-173.44-23.2,49.35-78.38-78.28,49.53-23.34-174.66-22.84,174.62-78.19-49.3,49.35,78.18-175.19,23.04,175.19,23.14-50.97,79.75,79.82-50.87,23.3,176.36,22.88-176.41v.04l78.06,48.92-49.17-77.81,173.49-22.98ZM511.34,344.53l-37.71,60.06-19.76-2.63,57.47-57.47v.04ZM509.06,342.21l-57.47,57.47-2.63-19.76,60.1-37.71ZM401.15,379.92l-2.63,19.76-57.47-57.47,60.1,37.71ZM338.73,344.53l57.47,57.47-19.76,2.63-37.71-60.1ZM376.44,452.4l19.76,2.63-57.47,57.47,37.71-60.1ZM341.1,514.87l57.43-57.43,2.63,19.72-60.06,37.71ZM425.02,629.06l-23.55-177.21-6.6-.64-153.74-20.37h.31l-17.13-2.28,15.7-2.11h-.41l162.1-21.47,23.42-170.74,23.35,170.72,178,23.82-177.76,23.29-23.7,177ZM449.01,477.16l2.63-19.72,57.43,57.43-60.06-37.71ZM511.39,512.46l-57.43-57.43,19.72-2.63,37.71,60.06Z"/>
</svg>