<?xml version="1.0" encoding="UTF-8"?>
<svg id="_レイヤー_1" data-name="レイヤー_1" xmlns="http://www.w3.org/2000/svg" version="1.1" viewBox="0 0 850.39 850.39">
  <!-- Generator: Adobe Illustrator 30.2.1, SVG Export Plug-In . SVG Version: 2.1.1 Build 1)  -->
  <defs>
    <style>
      .st0 {
        fill: #a5936e;
      }
    </style>
  </defs>
  <path class="st0" d="M503.64,576.57c-2.5,0-4.64,1.54-5.54,3.72h-228.53v-228.18c2.18-.9,3.72-3.04,3.72-5.54,0-3.32-2.69-6-6-6s-6,2.69-6,6c0,2.5,1.54,4.64,3.71,5.54v232.76h233.11c.9,2.18,3.04,3.72,5.54,3.72,3.32,0,6-2.69,6-6s-2.69-6-6-6Z"/>
  <polygon class="st0" points="542.53 571.94 520.2 582.74 542.53 593.82 594.01 582.74 542.53 571.94"/>
  <polygon class="st0" points="278.37 307.64 267.29 256.16 256.49 307.64 267.29 329.97 278.37 307.64"/>
</svg>