<?xml version="1.0" encoding="UTF-8"?>
<svg id="_レイヤー_1" data-name="レイヤー_1" xmlns="http://www.w3.org/2000/svg" version="1.1" viewBox="0 0 850.39 850.39">
  <!-- Generator: Adobe Illustrator 30.2.1, SVG Export Plug-In . SVG Version: 2.1.1 Build 1)  -->
  <defs>
    <style>
      .st0 {
        fill: #a5936e;
      }
    </style>
  </defs>
  <path class="st0" d="M651.55,424.23l-173.44-23.2,49.35-78.38-78.28,49.53-23.34-174.66-22.84,174.62-78.19-49.3,49.35,78.18-175.19,23.04,175.19,23.14-50.97,79.75,79.82-50.87,23.3,176.36,22.88-176.41v.04l78.06,48.92-49.17-77.81,173.49-22.98ZM512.39,340.14l-37.71,60.06-19.76-2.63,57.47-57.47v.04ZM510.11,337.81l-57.47,57.47-2.63-19.76,60.1-37.71ZM402.2,375.52l-2.63,19.76-57.47-57.47,60.1,37.71ZM339.77,340.14l57.47,57.47-19.76,2.63-37.71-60.1ZM377.48,448l19.76,2.63-57.47,57.47,37.71-60.1ZM342.14,510.47l57.43-57.43,2.63,19.72-60.06,37.71ZM426.07,624.66l-23.55-177.21-6.6-.64-153.74-20.37h.31l-17.13-2.28,15.7-2.11h-.41l162.1-21.47,23.42-170.74,23.35,170.72,178,23.82-177.76,23.29-23.7,177ZM450.05,472.76l2.63-19.72,57.43,57.43-60.06-37.71ZM512.44,508.06l-57.43-57.43,19.72-2.63,37.71,60.06Z"/>
</svg>