<?xml version="1.0" encoding="UTF-8"?>
<svg id="_レイヤー_1" data-name="レイヤー_1" xmlns="http://www.w3.org/2000/svg" version="1.1" viewBox="0 0 850.39 850.39">
  <!-- Generator: Adobe Illustrator 30.2.1, SVG Export Plug-In . SVG Version: 2.1.1 Build 1)  -->
  <defs>
    <style>
      .st0 {
        fill: #a5936e;
      }
    </style>
  </defs>
  <path class="st0" d="M505.99,634.31c-1.91,0-3.54.95-4.64,2.35-92.7-27.24-157.21-112.36-158.22-209.31h154.56c.88,2.21,3.03,3.79,5.56,3.79,3.32,0,6-2.69,6-6s-2.69-6-6-6c-2.48,0-4.6,1.5-5.52,3.64h-154.6c1-97.05,65.52-182.12,158.29-209.34,1.1,1.33,2.7,2.24,4.57,2.24,3.32,0,6-2.69,6-6s-2.69-6-6-6c-3.1,0-5.56,2.38-5.88,5.39-95.43,28.01-161.6,115.99-161.6,216.01s66.22,188.02,161.63,216.02c.39,2.94,2.8,5.25,5.85,5.25,3.32,0,6-2.69,6-6s-2.69-6-6-6Z"/>
</svg>