<?xml version="1.0" encoding="UTF-8"?>
<svg id="_レイヤー_1" data-name="レイヤー_1" xmlns="http://www.w3.org/2000/svg" version="1.1" viewBox="0 0 850.39 850.39">
  <!-- Generator: Adobe Illustrator 30.2.1, SVG Export Plug-In . SVG Version: 2.1.1 Build 1)  -->
  <defs>
    <style>
      .st0 {
        fill: #a5936e;
      }
    </style>
  </defs>
  <polygon class="st0" points="350.58 513.5 347.84 505.47 361.83 500.7 360.55 497.01 346.57 501.83 343.5 492.71 358.57 487.56 357.34 483.88 338.49 490.3 348.13 518.46 366.93 512.04 365.65 508.35 350.58 513.5"/>
  <polygon class="st0" points="404.3 488.27 390.55 466.35 387.2 468.48 402.98 493.61 419.84 483.08 417.81 479.82 404.3 488.27"/>
  <rect class="st0" x="436.34" y="431.94" width="3.92" height="29.72" transform="translate(-187.46 434.39) rotate(-44.41)"/>
  <path class="st0" d="M476.82,393.36l-.52-.28-6.43,11.34,3.31,1.89,4.25-7.51c1.65,1.46,2.65,3.26,2.98,5.39.33,2.31-.14,4.68-1.42,6.94-1.75,3.02-4.11,4.96-7.23,5.81-3.12.85-6,.57-8.65-.94-1.7-.99-3.02-2.31-3.97-4.02-.94-1.7-1.42-3.64-1.37-5.72,0-2.08.52-3.97,1.42-5.57.9-1.61,2.13-2.98,3.69-4.16,1.51-1.13,3.31-2.03,5.24-2.6l.57-.14-1.04-3.97-.57.19c-5.01,1.51-8.74,4.35-11.06,8.46-2.31,4.11-2.93,8.17-1.8,12.19,1.13,3.97,3.5,6.99,6.99,9.02,2.27,1.32,4.72,1.94,7.23,1.94,1.37,0,2.74-.19,4.16-.57,4.02-1.09,7.28-3.73,9.68-7.94,2.08-3.69,2.69-7.32,1.8-10.87-.9-3.54-3.35-6.52-7.23-8.79l-.05-.09Z"/>
  <path class="st0" d="M504.5,333.5c-2.31-1.32-4.91-1.98-7.61-1.98s-5.24.66-7.56,1.98c-2.31,1.32-4.16,3.17-5.48,5.53-1.32,2.31-1.98,4.91-1.98,7.65s.66,5.2,2.03,7.51c1.32,2.31,3.21,4.16,5.53,5.43,2.31,1.32,4.87,1.98,7.56,1.98s5.24-.66,7.56-1.98c2.31-1.32,4.16-3.17,5.48-5.48s1.98-4.87,1.98-7.56-.66-5.24-2.03-7.56c-1.32-2.31-3.21-4.16-5.53-5.48l.05-.05ZM508.05,346.59c0,3.21-1.09,5.91-3.21,7.98-2.17,2.13-4.72,3.17-7.8,3.17s-5.67-1.09-7.8-3.21c-2.17-2.17-3.21-4.77-3.21-7.89s1.04-5.76,3.17-7.94c2.13-2.17,4.68-3.26,7.84-3.26s5.67,1.09,7.84,3.26c2.17,2.13,3.26,4.82,3.26,7.94l-.09-.05Z"/>
</svg>