<?xml version="1.0" encoding="UTF-8"?>
<svg id="_レイヤー_1" data-name="レイヤー_1" xmlns="http://www.w3.org/2000/svg" version="1.1" viewBox="0 0 850.39 850.39">
  <!-- Generator: Adobe Illustrator 30.2.1, SVG Export Plug-In . SVG Version: 2.1.1 Build 1)  -->
  <defs>
    <style>
      .st0 {
        fill: #a5936e;
      }
    </style>
  </defs>
  <path class="st0" d="M474.53,422.7c-1.14-5.32-5.85-9.31-11.51-9.31-6.51,0-11.78,5.27-11.78,11.78s5.27,11.78,11.78,11.78c5.79,0,10.58-4.18,11.57-9.68h91.54c-1.23,76.64-63.95,138.61-140.88,138.61s-140.9-63.2-140.9-140.9,63.2-140.9,140.9-140.9c61.84,0,116.29,40.51,134.47,99.1-1.4,1.1-2.36,2.73-2.36,4.65,0,3.32,2.69,6,6,6s6-2.69,6-6c0-3.04-2.29-5.45-5.23-5.85-18.72-60.59-74.98-102.49-138.88-102.49-80.21,0-145.47,65.26-145.47,145.47s65.26,145.47,145.47,145.47,145.47-65.26,145.47-145.47v-2.29h-96.19Z"/>
</svg>